<?xml version="1.0" encoding="UTF-8"?> <!-- Generator: Adobe Illustrator 25.0.0, SVG Export Plug-In . SVG Version: 6.00 Build 0) --> <svg xmlns="http://www.w3.org/2000/svg" xmlns:xlink="http://www.w3.org/1999/xlink" id="Слой_1" x="0px" y="0px" viewBox="0 0 528.29 528.29" style="enable-background:new 0 0 528.29 528.29;" xml:space="preserve"> <style type="text/css"> .st0{fill:#FFFFFF;} </style> <g> <path class="st0" d="M126.73,68.34c2.76-1.75,5.41-2.5,7.93-2.25c2.52,0.25,4.62,1.52,6.31,3.83c1.86,2.55,2.42,5.18,1.69,7.9 c-0.74,2.72-2.64,5.21-5.72,7.46l-12.79,9.35l-22.73-31.07l12.7-9.29c2.81-2.06,5.54-3.03,8.19-2.92c2.65,0.11,4.88,1.41,6.7,3.89 c1.58,2.16,2.17,4.38,1.76,6.65C130.36,64.16,129.01,66.31,126.73,68.34z M106.04,63.72l8.67,11.85l9.9-7.24 c1.83-1.34,2.93-2.97,3.28-4.88c0.35-1.91-0.16-3.8-1.52-5.67c-1.36-1.86-3.01-2.87-4.93-3.01c-1.92-0.14-3.89,0.53-5.9,2 L106.04,63.72z M135.02,83.13c2.22-1.62,3.6-3.44,4.13-5.44c0.53-2,0.08-4-1.38-5.98c-1.45-1.98-3.21-3.06-5.29-3.22 c-2.07-0.16-4.19,0.54-6.35,2.12l-9.81,7.18l9.06,12.39L135.02,83.13z"></path> <path class="st0" d="M155.04,40.88l3.29-1.77l5.35,34.22c0.55,3.12,0.6,5.42,0.13,6.92s-1.76,2.82-3.89,3.97 c-0.77,0.42-1.62,0.81-2.55,1.18l-1.28-2.37c1-0.46,1.78-0.83,2.33-1.13c1.29-0.69,2.09-1.56,2.41-2.61s0.26-2.72-0.15-5.04 l-0.62-3.35l-1.65,0.89l-23.53-20.06l3.29-1.77l21.99,19.27L155.04,40.88z"></path> <path class="st0" d="M167.97,50.55c-1.76-4.55-1.99-8.46-0.7-11.73c1.29-3.27,3.73-5.6,7.32-6.99c3.69-1.43,7.02-1.32,9.98,0.33 c2.96,1.65,5.35,4.85,7.19,9.6l0.2,0.51l-20.42,7.9c1.46,3.37,3.37,5.67,5.74,6.92c2.37,1.25,4.9,1.35,7.61,0.3 c1.91-0.74,3.37-1.85,4.37-3.34c1-1.49,1.46-3.14,1.38-4.96l3.13-0.91c0.21,2.59-0.35,4.9-1.71,6.94c-1.35,2.04-3.43,3.6-6.24,4.68 c-3.8,1.47-7.28,1.44-10.44-0.09C172.21,58.19,169.75,55.14,167.97,50.55z M170.72,47.9l17.13-6.63c-1.25-3.13-3-5.33-5.23-6.59 c-2.24-1.26-4.6-1.4-7.1-0.44c-2.46,0.95-4.15,2.64-5.06,5.05C169.55,41.72,169.63,44.58,170.72,47.9z"></path> <path class="st0" d="M228.62,27.61c3.25-0.33,5.95,0.19,8.1,1.53c2.14,1.35,3.45,3.43,3.93,6.25c0.53,3.11-0.15,5.71-2.03,7.82 c-1.88,2.1-4.69,3.47-8.45,4.11l-15.62,2.64l-6.41-37.96l15.51-2.62c3.43-0.58,6.31-0.23,8.63,1.05c2.32,1.28,3.73,3.44,4.25,6.48 c0.45,2.64-0.02,4.88-1.4,6.73C233.73,25.49,231.57,26.81,228.62,27.61z M212.18,14.21l2.45,14.48l12.09-2.04 c2.24-0.38,3.95-1.34,5.12-2.9c1.17-1.55,1.56-3.47,1.18-5.75s-1.4-3.91-3.06-4.89c-1.65-0.98-3.71-1.27-6.17-0.85L212.18,14.21z M229.41,44.54c2.71-0.46,4.75-1.46,6.13-3.02c1.37-1.55,1.86-3.54,1.45-5.96c-0.41-2.42-1.5-4.17-3.28-5.25 c-1.78-1.07-3.99-1.39-6.63-0.94l-11.99,2.02l2.56,15.13L229.41,44.54z"></path> <path class="st0" d="M266.21,15.73l3.74-0.11l-10.51,33c-0.9,3.03-1.89,5.12-2.98,6.25c-1.09,1.13-2.84,1.74-5.26,1.81 c-0.88,0.03-1.82,0-2.81-0.08l-0.08-2.69c1.1,0.04,1.96,0.05,2.59,0.03c1.46-0.04,2.57-0.46,3.32-1.25 c0.75-0.79,1.45-2.32,2.12-4.58l0.95-3.27l-1.87,0.06l-12.08-28.47l3.74-0.11l11.04,27.07L266.21,15.73z"></path> <path class="st0" d="M273.44,30.15c0.45-4.85,1.98-8.46,4.59-10.81c2.61-2.35,5.83-3.35,9.67-3c3.94,0.37,6.87,1.94,8.79,4.74 c1.91,2.79,2.64,6.73,2.17,11.8l-0.05,0.55l-21.8-2.02c-0.19,3.67,0.5,6.58,2.06,8.75c1.57,2.17,3.79,3.39,6.68,3.66 c2.04,0.19,3.84-0.16,5.4-1.05c1.55-0.89,2.7-2.16,3.45-3.82l3.21,0.57c-0.96,2.42-2.5,4.23-4.62,5.45 c-2.12,1.22-4.68,1.69-7.67,1.42c-4.05-0.38-7.16-1.95-9.31-4.73C273.84,38.88,272.99,35.05,273.44,30.15z M277.08,29l18.29,1.69 c0.27-3.36-0.31-6.1-1.75-8.23c-1.44-2.12-3.5-3.31-6.16-3.55c-2.63-0.24-4.89,0.51-6.78,2.27S277.59,25.55,277.08,29z"></path> </g> <g> <path class="st0" d="M401.61,460.47c-2.76,1.75-5.41,2.5-7.93,2.25c-2.52-0.25-4.62-1.52-6.31-3.83c-1.86-2.55-2.42-5.18-1.69-7.9 c0.74-2.72,2.64-5.21,5.72-7.46l12.79-9.35l22.73,31.07l-12.7,9.29c-2.81,2.06-5.54,3.03-8.19,2.92c-2.65-0.11-4.88-1.41-6.7-3.89 c-1.58-2.16-2.17-4.38-1.76-6.65C397.98,464.65,399.33,462.5,401.61,460.47z M393.32,445.68c-2.22,1.62-3.6,3.44-4.13,5.44 c-0.53,2-0.08,4,1.38,5.98c1.45,1.98,3.21,3.06,5.29,3.22c2.07,0.16,4.19-0.54,6.35-2.12l9.81-7.18l-9.06-12.39L393.32,445.68z M422.3,465.09l-8.67-11.85l-9.9,7.24c-1.83,1.34-2.93,2.97-3.28,4.88c-0.35,1.91,0.16,3.8,1.52,5.67 c1.36,1.86,3.01,2.87,4.93,3.01c1.92,0.14,3.89-0.53,5.9-2L422.3,465.09z"></path> <path class="st0" d="M373.3,487.92l-3.29,1.77l-5.35-34.22c-0.55-3.12-0.6-5.42-0.13-6.92c0.46-1.5,1.76-2.82,3.89-3.97 c0.77-0.42,1.62-0.81,2.55-1.18l1.28,2.37c-1,0.46-1.78,0.83-2.33,1.13c-1.29,0.69-2.09,1.56-2.41,2.61s-0.26,2.72,0.15,5.04 l0.62,3.35l1.65-0.89l23.54,20.06l-3.29,1.77l-21.99-19.27L373.3,487.92z"></path> <path class="st0" d="M360.36,478.26c1.76,4.55,1.99,8.46,0.7,11.73c-1.29,3.27-3.73,5.6-7.32,6.99c-3.69,1.43-7.02,1.32-9.97-0.33 c-2.96-1.65-5.36-4.85-7.19-9.6l-0.2-0.51l20.42-7.9c-1.46-3.37-3.38-5.67-5.74-6.92c-2.37-1.25-4.9-1.35-7.61-0.3 c-1.91,0.74-3.37,1.85-4.37,3.34s-1.46,3.14-1.38,4.96l-3.13,0.91c-0.21-2.59,0.35-4.9,1.71-6.94c1.35-2.04,3.43-3.6,6.24-4.68 c3.8-1.47,7.28-1.44,10.44,0.09S358.59,473.67,360.36,478.26z M357.62,480.91l-17.13,6.63c1.25,3.13,3,5.33,5.23,6.59 c2.24,1.26,4.6,1.4,7.1,0.44c2.46-0.95,4.15-2.64,5.06-5.05C358.79,487.09,358.7,484.23,357.62,480.91z"></path> <path class="st0" d="M299.72,501.2c-3.25,0.33-5.95-0.18-8.1-1.53c-2.14-1.35-3.45-3.43-3.93-6.25c-0.53-3.11,0.15-5.71,2.03-7.82 c1.88-2.1,4.7-3.47,8.46-4.11l15.62-2.64l6.41,37.96l-15.51,2.62c-3.43,0.58-6.31,0.23-8.63-1.05s-3.73-3.44-4.25-6.48 c-0.45-2.64,0.02-4.88,1.4-6.73C294.61,503.32,296.77,502,299.72,501.2z M298.93,484.27c-2.71,0.46-4.75,1.46-6.13,3.02 c-1.37,1.55-1.86,3.54-1.45,5.96c0.41,2.42,1.5,4.17,3.28,5.25c1.78,1.07,3.99,1.39,6.63,0.94l11.99-2.02l-2.56-15.13 L298.93,484.27z M316.15,514.6l-2.45-14.48l-12.09,2.04c-2.24,0.38-3.95,1.34-5.12,2.9c-1.17,1.55-1.56,3.47-1.18,5.75 c0.38,2.28,1.4,3.91,3.06,4.89c1.65,0.98,3.71,1.27,6.17,0.85L316.15,514.6z"></path> <path class="st0" d="M262.12,513.08l-3.74,0.11l10.51-33c0.9-3.03,1.89-5.12,2.98-6.25c1.09-1.13,2.84-1.74,5.26-1.81 c0.88-0.03,1.82,0,2.81,0.08l0.08,2.69c-1.1-0.04-1.96-0.05-2.59-0.03c-1.46,0.04-2.57,0.46-3.32,1.25 c-0.75,0.79-1.45,2.32-2.12,4.58l-0.95,3.27l1.87-0.06l12.08,28.47l-3.74,0.11l-11.04-27.07L262.12,513.08z"></path> <path class="st0" d="M254.9,498.66c-0.45,4.86-1.98,8.46-4.59,10.82c-2.61,2.35-5.83,3.35-9.67,3c-3.94-0.37-6.87-1.94-8.79-4.74 c-1.91-2.79-2.64-6.73-2.17-11.8l0.05-0.55l21.8,2.02c0.19-3.67-0.5-6.58-2.06-8.75s-3.79-3.39-6.68-3.66 c-2.04-0.19-3.84,0.16-5.4,1.05c-1.55,0.89-2.7,2.16-3.45,3.82l-3.21-0.57c0.96-2.42,2.5-4.23,4.62-5.46 c2.12-1.22,4.68-1.69,7.67-1.42c4.05,0.38,7.16,1.95,9.31,4.73C254.5,489.93,255.35,493.76,254.9,498.66z M251.26,499.81 l-18.29-1.69c-0.27,3.36,0.31,6.1,1.75,8.23s3.5,3.31,6.16,3.55c2.63,0.24,4.89-0.51,6.78-2.27S250.75,503.26,251.26,499.81z"></path> </g> </svg> 