<?xml version="1.0" encoding="UTF-8"?> <!-- Generator: Adobe Illustrator 25.0.0, SVG Export Plug-In . SVG Version: 6.00 Build 0) --> <svg xmlns="http://www.w3.org/2000/svg" xmlns:xlink="http://www.w3.org/1999/xlink" id="Слой_1" x="0px" y="0px" viewBox="0 0 102.8 37.82" style="enable-background:new 0 0 102.8 37.82;" xml:space="preserve"> <style type="text/css"> .st0{fill:#FFFFFF;} </style> <g> <path class="st0" d="M11.88,10.9h7.6v11.88c0,2.39-1.94,4.33-4.33,4.33c-2.39,0-4.33-1.94-4.33-4.33v-4.23L0.61,22.1l0.08,0.69 c0,7.97,6.49,14.46,14.46,14.46c7.97,0,14.45-6.48,14.46-14.45V0.77H11.88V10.9z"></path> <polygon class="st0" points="55.61,0.75 44.04,16.83 44.04,0.76 33.91,0.76 33.91,36.72 44.04,36.72 44.04,20.7 55.57,36.73 68.06,36.73 55.13,18.77 68.1,0.75 "></polygon> <path class="st0" d="M80.35,10.89h7.53c2.15,0,3.9,1.75,3.9,3.9c0,2.15-1.75,3.9-3.9,3.9h-7.53V10.89z M102.35,36.73l-7.17-9.96 c4.03-2.47,6.73-6.91,6.73-11.98c0-7.74-6.3-14.03-14.03-14.03H70.22v35.97h10.13V24.15V23.5l9.52,13.23H102.35z"></path> </g> </svg> 